<?xml version="1.0" encoding="UTF-8"?>
<svg id="Capa_1" xmlns="http://www.w3.org/2000/svg" version="1.1" viewBox="0 0 1920 1080">
  <!-- Generator: Adobe Illustrator 30.0.0, SVG Export Plug-In . SVG Version: 2.1.1 Build 123)  -->
  <defs>
    <style>
      .st0 {
        fill: #81b762;
      }

      .st1 {
        fill: #fff;
      }

      .st2 {
        fill: #306a18;
      }

      .st3 {
        fill: #60a047;
      }

      .st4 {
        fill: #c2e8c6;
      }
    </style>
  </defs>
  <path class="st3" d="M1361.02,4.34L1363.29,0l1.57.1c9.13,19.19,26.09,83.54,28.82,104.41,26,121.54,16.38,274.45-51.56,380.16-81.14,121.37-229.57,177.68-371.7,153.01-95.48-15.79-191.72-58.36-289.49-54.01-40.76,1.81-76.85,29.29-100.3,61.57-22.12,30.46-37.14,114.31-73.53,122.07-9.94,2.12-20.31.07-28.69-5.66-7.98-5.33-13.44-13.7-15.09-23.15-3.45-20.09,12.87-41.55,23.84-56.98,86.93-122.28,219.92-228.38,371.27-252.48,78.17-12.45,132.78,1.61,205.77,26.5,2.96,0,5.24,0,8.21.25l.54-.84c-10.55-4.9-23.67-8.26-34.16-13.38-89.58-43.72-182.94-45.44-276.22-10.59-28.92,10.81-59.92,24.33-87.87,38.06-12.69,5.88-62.11,34.8-69.07,36.19l-11.8,9.64c1.22-6.93,3.77-27.85,5.29-32.29.51-16.39,11.9-69.45,15.53-86.36,18.56-89.73,57.49-194.83,128.46-255.66,33.59-28.78,72.05-47.85,116.98-43.92,72.74,6.37,104.54,61.29,147.47,111.68,32.45-27.71,83.5-45.54,124.09-56.78,99.5-27.56,173.34-56.23,229.38-147.2Z"/>
  <path class="st2" d="M1101.67,469.3c3.04.17,23.4,8.06,27.77,9.74,93.64,36.05,192.15-5.48,239.78-92.5,44.25-80.82,35.49-192.93,24.33-281.26.05-.26.09-.52.14-.78,26,121.54,16.38,274.45-51.56,380.16-81.14,121.37-229.57,177.68-371.7,153.01-95.48-15.79-191.72-58.36-289.49-54.01-40.76,1.81-76.85,29.29-100.3,61.57-22.12,30.46-37.14,114.31-73.53,122.07-9.94,2.12-20.31.07-28.69-5.66-7.98-5.33-13.44-13.7-15.09-23.15-3.45-20.09,12.87-41.55,23.84-56.98,86.93-122.28,219.92-228.38,371.27-252.48,78.17-12.45,132.78,1.61,205.77,26.5,9.16,3.24,29.59,10.02,37.47,13.76Z"/>
  <path class="st3" d="M1361.02,4.34L1363.29,0l1.57.1c9.13,19.19,26.09,83.54,28.82,104.41-.05.26-.09.52-.14.78,11.16,88.33,19.92,200.44-24.33,281.26-47.63,87.01-146.14,128.55-239.78,92.5-4.36-1.68-24.72-9.57-27.77-9.74,2.36-3.86,8.11-26.63,11.9-34.87,20.37-65.65,68.36-98.91,114.47-144.51,14.23-14.07,25.6-29.3,37-45.62l-1.79-.12c-16.53,14.59-37.68,31.5-61.69,32.28-1.12.04-2.14-.55-3.11-1.04l-.24-1.25c-40.61-19.13-54.17-10.85-79.33,25.35-20.4-13.88-41.35-26.9-60.53-42.41-18.26-14.77-34.44-31.96-50.8-48.79,32.45-27.71,83.5-45.54,124.09-56.78,99.5-27.56,173.34-56.23,229.38-147.2Z"/>
  <path class="st0" d="M1007.55,208.32c32.45-27.71,83.5-45.54,124.09-56.78,99.5-27.56,173.34-56.23,229.38-147.2.47,16.54-15.19,63.53-19.37,81.94-14.37,47.87-37.58,96.63-63.83,139.1-2.24,3.63-10.46,16.84-12.78,18.92l-1.79-.12c-16.53,14.59-37.68,31.5-61.69,32.28-1.12.04-2.14-.55-3.11-1.04l-.24-1.25c-40.61-19.13-54.17-10.85-79.33,25.35-20.4-13.88-41.35-26.9-60.53-42.41-18.26-14.77-34.44-31.96-50.8-48.79Z"/>
  <path class="st2" d="M1341.65,86.28c1.58,7.05-4.72,22.47-7.14,29.69-13.69,40.77-31.69,80.64-54.77,117.02-11.2,17.65-28.15,41.49-42.37,56.63-28.83,30.71-63.68,56.79-90.02,89.89-11.29,14.19-22.94,37.31-31.69,53.71-.71.41-1.4.81-2.11,1.22,20.37-65.65,68.36-98.91,114.47-144.51,14.23-14.07,25.6-29.3,37-45.62,2.33-2.08,10.54-15.29,12.78-18.92,26.25-42.46,49.46-91.23,63.83-139.1Z"/>
  <path class="st4" d="M1198.45,275.43c.97.49,1.99,1.07,3.11,1.04,24.01-.79,45.15-17.69,61.69-32.28l1.79.12c-11.4,16.32-22.77,31.55-37,45.62-46.11,45.6-94.1,78.86-114.47,144.51-3.79,8.24-9.54,31.01-11.9,34.87-7.88-3.74-28.31-10.52-37.47-13.76,2.96,0,5.24,0,8.21.25l.54-.84c-10.55-4.9-23.67-8.26-34.16-13.38-89.58-43.72-182.94-45.44-276.22-10.59-28.92,10.81-59.92,24.33-87.87,38.06-12.69,5.88-62.11,34.8-69.07,36.19,20.44-21.01,42.62-40.62,63.31-62.37,44.92-47.85,86.84-98.43,125.52-151.45,28.52-38.56,53.43-56.48,94.69-21.94,35.49,29.71,86.76,113.96,130.09,127.18,11.59,3.47,24.02,3.02,35.34-1.26,52.93-19.56,52.71-96.18,97.34-123.65,15.11-9.3,31.41-1.08,46.53,3.69Z"/>
  <path class="st2" d="M614.65,396.21c18.56-89.73,57.49-194.83,128.46-255.66,33.59-28.78,72.05-47.85,116.98-43.92,72.74,6.37,104.54,61.29,147.47,111.68,16.36,16.83,32.54,34.02,50.8,48.79,19.18,15.51,40.13,28.53,60.53,42.41,25.16-36.2,38.72-44.47,79.33-25.35l.24,1.25c-15.12-4.78-31.42-12.99-46.53-3.69-44.63,27.47-44.41,104.09-97.34,123.65-11.33,4.29-23.75,4.73-35.34,1.26-43.33-13.22-94.6-97.47-130.09-127.18-41.26-34.54-66.17-16.61-94.69,21.94-38.68,53.02-80.6,103.6-125.52,151.45-20.69,21.75-42.87,41.35-63.31,62.37l-11.8,9.64c1.22-6.93,3.77-27.85,5.29-32.29l1,2.87c.18,3.33-2.41,16.2-2.97,21.03,24.48-27.75,56.98-55.26,81.42-84.4,22.19-29.36,53.4-60.62,73.9-90.45,63.86-92.91,100.54-137.65,186.93-21.85,10.8-38.88,33.61-73.35,65.17-98.48-36.33-38.79-73.25-94.57-127.85-104.54-151.73-27.73-235.57,179.19-259.69,294.53l-2.38-5.07Z"/>
  <path class="st2" d="M614.65,396.21l2.38,5.07c-6.99,29.31-10.66,56.72-16.9,84.16l-1-2.87c.51-16.39,11.9-69.45,15.53-86.36Z"/>
  <path class="st2" d="M733.93,812.01c.72-.9,1.48-1.76,2.28-2.6,29.45-31.05,86.51-35.91,118.1-5.88,27.59,26.22,23.08,72.71,23.02,107.38l.06,68.32c-19.56-.11-39.12-.12-58.68,0-.48-23.96.38-47.85.21-72.26-.16-23.01,4.33-71.21-30.68-71.96-39.59-.85-40.93,40.23-39.6,69.41.55,12.02.12,26.61.2,39.23l.05,35.53h-58.63c-.24-37.76,2.06-78.62-1.41-116.02-2.56-27.6-36.8-37.35-55.82-18.64-16.28,16.01-13.04,47.97-13.01,69.23l.17,65.37-57.78.18.08-192.77h54.24v19.32c16.98-15.6,31.42-20.33,53.49-22.29,25.38-2.18,48.11,8.66,63.7,28.46Z"/>
  <path class="st3" d="M1612.02,785.81c3.01-.3,6.03-.47,9.06-.52,124.71-1.06,124.17,196.73,1.24,196.38-27.77-.08-43.5-8.55-62.67-27.76l.06,26.17v67.64s-37.1.02-37.1.02l.05-260.03,35.62-.07.03,25.78c15.62-17.76,30.5-24.54,53.71-27.6Z"/>
  <path class="st1" d="M1607.14,820.36c3.32-.29,6.58-.35,9.88-.49,58.82-2.42,78.4,77.6,39.05,113.09-8.08,7.27-15.05,10.14-25.24,12.96-84.78,11.55-95.72-108.69-23.68-125.56Z"/>
  <path class="st2" d="M335.74,723.4c34.58-2.16,69.02,4.85,98,24.35-6,11.54-14.58,34.18-19.75,46.7-28.7-15.95-71.98-32.88-103.92-10.38-9.1,6.93-8.9,23.98,1.19,29.32,47.01,24.87,134.43,16.36,131.14,93.2-2.82,65.96-62.56,78.18-116.86,76.59-32.84-3.8-61.77-10.84-88.39-31.89,7.46-14.84,14.66-31.51,22.04-46.77,30.96,20.52,54.28,29.59,92.33,27.4,30.46.11,45.63-31.92,12.03-44.41-43.04-15.81-114.77-16.68-119.63-76.65-4.79-59.18,41.21-83.04,91.82-87.45Z"/>
  <path class="st3" d="M1245.69,727.35l32.53.08.07,251.6-37.06.05-.1-117.57c-.22-20.42-.01-41.17,0-61.62-8.73,13.56-18,31.97-26.24,46.23-19.55,33.82-38.18,68.79-58.18,102.29l-19.09.04c-28.74-46.91-56.38-99.32-84.25-147.51l-.17,178.17h-37.24s.05-251.64.05-251.64l33.8-.08c32.57,53.87,66.36,115.38,97.55,170.39,33.16-54.87,65.52-114.57,98.32-170.43Z"/>
  <path class="st3" d="M1386.53,785.86c2.39-.26,4.8-.42,7.22-.46,23.1-.42,47.13,3.67,64.24,20.62,24.79,24.56,20.56,65.24,20.5,97.42l-.05,75.74-34.89-.06c.09-7.12-.3-14.82-.52-21.98-30.36,33.84-93.18,33.94-119.45-4.73-4.77-8.83-7.28-18.69-7.32-28.71-.58-66.55,80.05-57.44,124.59-57.27-1.05-49.66-39.4-55.36-79.27-41.69-8.95,3.07-17.12,9.02-24.87,14.41-5.19-8.99-10.05-19.16-14.74-28.52,20.49-15.74,38.92-22.17,64.57-24.78Z"/>
  <path class="st1" d="M1384.32,894.52c18.09-.73,38.25-.21,56.53-.06.16,29.13-1.37,41.22-30.48,54.49-1.32.31-2.64.61-3.96.89-13.17,2.8-29.21,2.81-40.71-4.94-6.65-4.4-11.18-11.35-12.52-19.21-3.42-20.23,14.23-28.77,31.14-31.17Z"/>
  <path class="st2" d="M467.47,786.5h58.77c-1.22,62.71-.18,129.6,0,192.6-18.8.5-39.81.02-58.79.02l.03-192.62Z"/>
  <path class="st2" d="M912.44,786.5l58.43-.04c.01,63.65.81,129.17-.17,192.67l-58.51.18c1.1-63.57.21-129.06.26-192.81Z"/>
  <path class="st2" d="M940.53,697.89c7.74.06,15.46,1.62,22.07,5.79,7.42,4.63,12.67,12.04,14.59,20.58,5.07,22.83-10.15,36.51-31.1,40.55-10.57-.09-17.94-.47-26.97-7.19-7.03-5.15-11.66-12.94-12.83-21.58-1.2-8.74,1.19-17.6,6.62-24.55,7.41-9.44,16.33-12.19,27.62-13.6Z"/>
</svg>